<svg xmlns="http://www.w3.org/2000/svg" width="551" height="1122" viewBox="0 0 551 1122">
<rect width="551" height="1122" fill="#12151a"/>
<text x="30" y="32" fill="#e8e3d8" font-size="15" font-family="ui-monospace,monospace">The round trip:  a + b = c  -&gt;  the branch closes on the repdigit cc</text>
<text x="30" y="52" fill="#707a88" font-size="11.5" font-family="ui-monospace,monospace">branch = S, S+9a, S+9b, S+9c     (10a+b) + (10b+a) = 11c = cc = the last cell</text>
<text x="30" y="92" fill="#4a8fb5" font-size="13" font-family="ui-monospace,monospace">closes on 33</text>
<text x="30" y="128" fill="#e8e3d8" font-size="13" font-family="ui-monospace,monospace">123</text>
<rect x="80" y="106" width="58" height="34" rx="4" fill="#171b21" stroke="#4a8fb5" stroke-width="0.9"/>
<text x="109" y="128" fill="#e8e3d8" font-size="13" text-anchor="middle" font-family="ui-monospace,monospace">6</text>
<rect x="144" y="106" width="58" height="34" rx="4" fill="#171b21" stroke="#4a8fb5" stroke-width="0.9"/>
<text x="173" y="128" fill="#e8e3d8" font-size="13" text-anchor="middle" font-family="ui-monospace,monospace">15</text>
<rect x="208" y="106" width="58" height="34" rx="4" fill="#171b21" stroke="#4a8fb5" stroke-width="0.9"/>
<text x="237" y="128" fill="#e8e3d8" font-size="13" text-anchor="middle" font-family="ui-monospace,monospace">24</text>
<rect x="272" y="106" width="58" height="34" rx="4" fill="#2a2118" stroke="#4a8fb5" stroke-width="2"/>
<text x="301" y="128" fill="#e8e3d8" font-size="13" text-anchor="middle" font-family="ui-monospace,monospace">33</text>
<text x="348" y="128" fill="#4a8fb5" font-size="12" font-family="ui-monospace,monospace">12+21 = 33</text>
<text x="30" y="176" fill="#5aa07e" font-size="13" font-family="ui-monospace,monospace">closes on 44</text>
<text x="30" y="212" fill="#e8e3d8" font-size="13" font-family="ui-monospace,monospace">134</text>
<rect x="80" y="190" width="58" height="34" rx="4" fill="#171b21" stroke="#5aa07e" stroke-width="0.9"/>
<text x="109" y="212" fill="#e8e3d8" font-size="13" text-anchor="middle" font-family="ui-monospace,monospace">8</text>
<rect x="144" y="190" width="58" height="34" rx="4" fill="#171b21" stroke="#5aa07e" stroke-width="0.9"/>
<text x="173" y="212" fill="#e8e3d8" font-size="13" text-anchor="middle" font-family="ui-monospace,monospace">17</text>
<rect x="208" y="190" width="58" height="34" rx="4" fill="#171b21" stroke="#5aa07e" stroke-width="0.9"/>
<text x="237" y="212" fill="#e8e3d8" font-size="13" text-anchor="middle" font-family="ui-monospace,monospace">35</text>
<rect x="272" y="190" width="58" height="34" rx="4" fill="#2a2118" stroke="#5aa07e" stroke-width="2"/>
<text x="301" y="212" fill="#e8e3d8" font-size="13" text-anchor="middle" font-family="ui-monospace,monospace">44</text>
<text x="348" y="212" fill="#5aa07e" font-size="12" font-family="ui-monospace,monospace">13+31 = 44</text>
<text x="30" y="260" fill="#c2a04a" font-size="13" font-family="ui-monospace,monospace">closes on 55</text>
<text x="30" y="296" fill="#e8e3d8" font-size="13" font-family="ui-monospace,monospace">145</text>
<rect x="80" y="274" width="58" height="34" rx="4" fill="#171b21" stroke="#c2a04a" stroke-width="0.9"/>
<text x="109" y="296" fill="#e8e3d8" font-size="13" text-anchor="middle" font-family="ui-monospace,monospace">10</text>
<rect x="144" y="274" width="58" height="34" rx="4" fill="#171b21" stroke="#c2a04a" stroke-width="0.9"/>
<text x="173" y="296" fill="#e8e3d8" font-size="13" text-anchor="middle" font-family="ui-monospace,monospace">19</text>
<rect x="208" y="274" width="58" height="34" rx="4" fill="#171b21" stroke="#c2a04a" stroke-width="0.9"/>
<text x="237" y="296" fill="#e8e3d8" font-size="13" text-anchor="middle" font-family="ui-monospace,monospace">46</text>
<rect x="272" y="274" width="58" height="34" rx="4" fill="#2a2118" stroke="#c2a04a" stroke-width="2"/>
<text x="301" y="296" fill="#e8e3d8" font-size="13" text-anchor="middle" font-family="ui-monospace,monospace">55</text>
<text x="348" y="296" fill="#c2a04a" font-size="12" font-family="ui-monospace,monospace">14+41 = 55</text>
<text x="30" y="344" fill="#e8e3d8" font-size="13" font-family="ui-monospace,monospace">235</text>
<rect x="80" y="322" width="58" height="34" rx="4" fill="#171b21" stroke="#c2a04a" stroke-width="0.9"/>
<text x="109" y="344" fill="#e8e3d8" font-size="13" text-anchor="middle" font-family="ui-monospace,monospace">10</text>
<rect x="144" y="322" width="58" height="34" rx="4" fill="#171b21" stroke="#c2a04a" stroke-width="0.9"/>
<text x="173" y="344" fill="#e8e3d8" font-size="13" text-anchor="middle" font-family="ui-monospace,monospace">28</text>
<rect x="208" y="322" width="58" height="34" rx="4" fill="#171b21" stroke="#c2a04a" stroke-width="0.9"/>
<text x="237" y="344" fill="#e8e3d8" font-size="13" text-anchor="middle" font-family="ui-monospace,monospace">37</text>
<rect x="272" y="322" width="58" height="34" rx="4" fill="#2a2118" stroke="#c2a04a" stroke-width="2"/>
<text x="301" y="344" fill="#e8e3d8" font-size="13" text-anchor="middle" font-family="ui-monospace,monospace">55</text>
<text x="348" y="344" fill="#c2a04a" font-size="12" font-family="ui-monospace,monospace">23+32 = 55</text>
<text x="30" y="392" fill="#d98c3f" font-size="13" font-family="ui-monospace,monospace">closes on 66</text>
<text x="30" y="428" fill="#e8e3d8" font-size="13" font-family="ui-monospace,monospace">156</text>
<rect x="80" y="406" width="58" height="34" rx="4" fill="#171b21" stroke="#d98c3f" stroke-width="0.9"/>
<text x="109" y="428" fill="#e8e3d8" font-size="13" text-anchor="middle" font-family="ui-monospace,monospace">12</text>
<rect x="144" y="406" width="58" height="34" rx="4" fill="#171b21" stroke="#d98c3f" stroke-width="0.9"/>
<text x="173" y="428" fill="#e8e3d8" font-size="13" text-anchor="middle" font-family="ui-monospace,monospace">21</text>
<rect x="208" y="406" width="58" height="34" rx="4" fill="#171b21" stroke="#d98c3f" stroke-width="0.9"/>
<text x="237" y="428" fill="#e8e3d8" font-size="13" text-anchor="middle" font-family="ui-monospace,monospace">57</text>
<rect x="272" y="406" width="58" height="34" rx="4" fill="#2a2118" stroke="#d98c3f" stroke-width="2"/>
<text x="301" y="428" fill="#e8e3d8" font-size="13" text-anchor="middle" font-family="ui-monospace,monospace">66</text>
<text x="348" y="428" fill="#d98c3f" font-size="12" font-family="ui-monospace,monospace">15+51 = 66</text>
<text x="30" y="476" fill="#e8e3d8" font-size="13" font-family="ui-monospace,monospace">246</text>
<rect x="80" y="454" width="58" height="34" rx="4" fill="#171b21" stroke="#d98c3f" stroke-width="0.9"/>
<text x="109" y="476" fill="#e8e3d8" font-size="13" text-anchor="middle" font-family="ui-monospace,monospace">12</text>
<rect x="144" y="454" width="58" height="34" rx="4" fill="#171b21" stroke="#d98c3f" stroke-width="0.9"/>
<text x="173" y="476" fill="#e8e3d8" font-size="13" text-anchor="middle" font-family="ui-monospace,monospace">30</text>
<rect x="208" y="454" width="58" height="34" rx="4" fill="#171b21" stroke="#d98c3f" stroke-width="0.9"/>
<text x="237" y="476" fill="#e8e3d8" font-size="13" text-anchor="middle" font-family="ui-monospace,monospace">48</text>
<rect x="272" y="454" width="58" height="34" rx="4" fill="#2a2118" stroke="#d98c3f" stroke-width="2"/>
<text x="301" y="476" fill="#e8e3d8" font-size="13" text-anchor="middle" font-family="ui-monospace,monospace">66</text>
<text x="348" y="476" fill="#d98c3f" font-size="12" font-family="ui-monospace,monospace">24+42 = 66</text>
<text x="30" y="524" fill="#cf6f5a" font-size="13" font-family="ui-monospace,monospace">closes on 77</text>
<text x="30" y="560" fill="#e8e3d8" font-size="13" font-family="ui-monospace,monospace">167</text>
<rect x="80" y="538" width="58" height="34" rx="4" fill="#171b21" stroke="#cf6f5a" stroke-width="0.9"/>
<text x="109" y="560" fill="#e8e3d8" font-size="13" text-anchor="middle" font-family="ui-monospace,monospace">14</text>
<rect x="144" y="538" width="58" height="34" rx="4" fill="#171b21" stroke="#cf6f5a" stroke-width="0.9"/>
<text x="173" y="560" fill="#e8e3d8" font-size="13" text-anchor="middle" font-family="ui-monospace,monospace">23</text>
<rect x="208" y="538" width="58" height="34" rx="4" fill="#171b21" stroke="#cf6f5a" stroke-width="0.9"/>
<text x="237" y="560" fill="#e8e3d8" font-size="13" text-anchor="middle" font-family="ui-monospace,monospace">68</text>
<rect x="272" y="538" width="58" height="34" rx="4" fill="#2a2118" stroke="#cf6f5a" stroke-width="2"/>
<text x="301" y="560" fill="#e8e3d8" font-size="13" text-anchor="middle" font-family="ui-monospace,monospace">77</text>
<text x="348" y="560" fill="#cf6f5a" font-size="12" font-family="ui-monospace,monospace">16+61 = 77</text>
<text x="30" y="608" fill="#e8e3d8" font-size="13" font-family="ui-monospace,monospace">257</text>
<rect x="80" y="586" width="58" height="34" rx="4" fill="#171b21" stroke="#cf6f5a" stroke-width="0.9"/>
<text x="109" y="608" fill="#e8e3d8" font-size="13" text-anchor="middle" font-family="ui-monospace,monospace">14</text>
<rect x="144" y="586" width="58" height="34" rx="4" fill="#171b21" stroke="#cf6f5a" stroke-width="0.9"/>
<text x="173" y="608" fill="#e8e3d8" font-size="13" text-anchor="middle" font-family="ui-monospace,monospace">32</text>
<rect x="208" y="586" width="58" height="34" rx="4" fill="#171b21" stroke="#cf6f5a" stroke-width="0.9"/>
<text x="237" y="608" fill="#e8e3d8" font-size="13" text-anchor="middle" font-family="ui-monospace,monospace">59</text>
<rect x="272" y="586" width="58" height="34" rx="4" fill="#2a2118" stroke="#cf6f5a" stroke-width="2"/>
<text x="301" y="608" fill="#e8e3d8" font-size="13" text-anchor="middle" font-family="ui-monospace,monospace">77</text>
<text x="348" y="608" fill="#cf6f5a" font-size="12" font-family="ui-monospace,monospace">25+52 = 77</text>
<text x="30" y="656" fill="#e8e3d8" font-size="13" font-family="ui-monospace,monospace">347</text>
<rect x="80" y="634" width="58" height="34" rx="4" fill="#171b21" stroke="#cf6f5a" stroke-width="0.9"/>
<text x="109" y="656" fill="#e8e3d8" font-size="13" text-anchor="middle" font-family="ui-monospace,monospace">14</text>
<rect x="144" y="634" width="58" height="34" rx="4" fill="#171b21" stroke="#cf6f5a" stroke-width="0.9"/>
<text x="173" y="656" fill="#e8e3d8" font-size="13" text-anchor="middle" font-family="ui-monospace,monospace">41</text>
<rect x="208" y="634" width="58" height="34" rx="4" fill="#171b21" stroke="#cf6f5a" stroke-width="0.9"/>
<text x="237" y="656" fill="#e8e3d8" font-size="13" text-anchor="middle" font-family="ui-monospace,monospace">50</text>
<rect x="272" y="634" width="58" height="34" rx="4" fill="#2a2118" stroke="#cf6f5a" stroke-width="2"/>
<text x="301" y="656" fill="#e8e3d8" font-size="13" text-anchor="middle" font-family="ui-monospace,monospace">77</text>
<text x="348" y="656" fill="#cf6f5a" font-size="12" font-family="ui-monospace,monospace">34+43 = 77</text>
<text x="30" y="704" fill="#a97fb5" font-size="13" font-family="ui-monospace,monospace">closes on 88</text>
<text x="30" y="740" fill="#e8e3d8" font-size="13" font-family="ui-monospace,monospace">178</text>
<rect x="80" y="718" width="58" height="34" rx="4" fill="#171b21" stroke="#a97fb5" stroke-width="0.9"/>
<text x="109" y="740" fill="#e8e3d8" font-size="13" text-anchor="middle" font-family="ui-monospace,monospace">16</text>
<rect x="144" y="718" width="58" height="34" rx="4" fill="#171b21" stroke="#a97fb5" stroke-width="0.9"/>
<text x="173" y="740" fill="#e8e3d8" font-size="13" text-anchor="middle" font-family="ui-monospace,monospace">25</text>
<rect x="208" y="718" width="58" height="34" rx="4" fill="#171b21" stroke="#a97fb5" stroke-width="0.9"/>
<text x="237" y="740" fill="#e8e3d8" font-size="13" text-anchor="middle" font-family="ui-monospace,monospace">79</text>
<rect x="272" y="718" width="58" height="34" rx="4" fill="#2a2118" stroke="#a97fb5" stroke-width="2"/>
<text x="301" y="740" fill="#e8e3d8" font-size="13" text-anchor="middle" font-family="ui-monospace,monospace">88</text>
<text x="348" y="740" fill="#a97fb5" font-size="12" font-family="ui-monospace,monospace">17+71 = 88</text>
<text x="30" y="788" fill="#e8e3d8" font-size="13" font-family="ui-monospace,monospace">268</text>
<rect x="80" y="766" width="58" height="34" rx="4" fill="#171b21" stroke="#a97fb5" stroke-width="0.9"/>
<text x="109" y="788" fill="#e8e3d8" font-size="13" text-anchor="middle" font-family="ui-monospace,monospace">16</text>
<rect x="144" y="766" width="58" height="34" rx="4" fill="#171b21" stroke="#a97fb5" stroke-width="0.9"/>
<text x="173" y="788" fill="#e8e3d8" font-size="13" text-anchor="middle" font-family="ui-monospace,monospace">34</text>
<rect x="208" y="766" width="58" height="34" rx="4" fill="#171b21" stroke="#a97fb5" stroke-width="0.9"/>
<text x="237" y="788" fill="#e8e3d8" font-size="13" text-anchor="middle" font-family="ui-monospace,monospace">70</text>
<rect x="272" y="766" width="58" height="34" rx="4" fill="#2a2118" stroke="#a97fb5" stroke-width="2"/>
<text x="301" y="788" fill="#e8e3d8" font-size="13" text-anchor="middle" font-family="ui-monospace,monospace">88</text>
<text x="348" y="788" fill="#a97fb5" font-size="12" font-family="ui-monospace,monospace">26+62 = 88</text>
<text x="30" y="836" fill="#e8e3d8" font-size="13" font-family="ui-monospace,monospace">358</text>
<rect x="80" y="814" width="58" height="34" rx="4" fill="#171b21" stroke="#a97fb5" stroke-width="0.9"/>
<text x="109" y="836" fill="#e8e3d8" font-size="13" text-anchor="middle" font-family="ui-monospace,monospace">16</text>
<rect x="144" y="814" width="58" height="34" rx="4" fill="#171b21" stroke="#a97fb5" stroke-width="0.9"/>
<text x="173" y="836" fill="#e8e3d8" font-size="13" text-anchor="middle" font-family="ui-monospace,monospace">43</text>
<rect x="208" y="814" width="58" height="34" rx="4" fill="#171b21" stroke="#a97fb5" stroke-width="0.9"/>
<text x="237" y="836" fill="#e8e3d8" font-size="13" text-anchor="middle" font-family="ui-monospace,monospace">61</text>
<rect x="272" y="814" width="58" height="34" rx="4" fill="#2a2118" stroke="#a97fb5" stroke-width="2"/>
<text x="301" y="836" fill="#e8e3d8" font-size="13" text-anchor="middle" font-family="ui-monospace,monospace">88</text>
<text x="348" y="836" fill="#a97fb5" font-size="12" font-family="ui-monospace,monospace">35+53 = 88</text>
<text x="30" y="884" fill="#8a7fb5" font-size="13" font-family="ui-monospace,monospace">closes on 99</text>
<text x="30" y="920" fill="#e8e3d8" font-size="13" font-family="ui-monospace,monospace">189</text>
<rect x="80" y="898" width="58" height="34" rx="4" fill="#171b21" stroke="#8a7fb5" stroke-width="0.9"/>
<text x="109" y="920" fill="#e8e3d8" font-size="13" text-anchor="middle" font-family="ui-monospace,monospace">18</text>
<rect x="144" y="898" width="58" height="34" rx="4" fill="#171b21" stroke="#8a7fb5" stroke-width="0.9"/>
<text x="173" y="920" fill="#e8e3d8" font-size="13" text-anchor="middle" font-family="ui-monospace,monospace">27</text>
<rect x="208" y="898" width="58" height="34" rx="4" fill="#171b21" stroke="#8a7fb5" stroke-width="0.9"/>
<text x="237" y="920" fill="#e8e3d8" font-size="13" text-anchor="middle" font-family="ui-monospace,monospace">90</text>
<rect x="272" y="898" width="58" height="34" rx="4" fill="#2a2118" stroke="#8a7fb5" stroke-width="2"/>
<text x="301" y="920" fill="#e8e3d8" font-size="13" text-anchor="middle" font-family="ui-monospace,monospace">99</text>
<text x="348" y="920" fill="#8a7fb5" font-size="12" font-family="ui-monospace,monospace">18+81 = 99</text>
<text x="30" y="968" fill="#e8e3d8" font-size="13" font-family="ui-monospace,monospace">279</text>
<rect x="80" y="946" width="58" height="34" rx="4" fill="#171b21" stroke="#8a7fb5" stroke-width="0.9"/>
<text x="109" y="968" fill="#e8e3d8" font-size="13" text-anchor="middle" font-family="ui-monospace,monospace">18</text>
<rect x="144" y="946" width="58" height="34" rx="4" fill="#171b21" stroke="#8a7fb5" stroke-width="0.9"/>
<text x="173" y="968" fill="#e8e3d8" font-size="13" text-anchor="middle" font-family="ui-monospace,monospace">36</text>
<rect x="208" y="946" width="58" height="34" rx="4" fill="#171b21" stroke="#8a7fb5" stroke-width="0.9"/>
<text x="237" y="968" fill="#e8e3d8" font-size="13" text-anchor="middle" font-family="ui-monospace,monospace">81</text>
<rect x="272" y="946" width="58" height="34" rx="4" fill="#2a2118" stroke="#8a7fb5" stroke-width="2"/>
<text x="301" y="968" fill="#e8e3d8" font-size="13" text-anchor="middle" font-family="ui-monospace,monospace">99</text>
<text x="348" y="968" fill="#8a7fb5" font-size="12" font-family="ui-monospace,monospace">27+72 = 99</text>
<text x="30" y="1016" fill="#e8e3d8" font-size="13" font-family="ui-monospace,monospace">369</text>
<rect x="80" y="994" width="58" height="34" rx="4" fill="#171b21" stroke="#8a7fb5" stroke-width="0.9"/>
<text x="109" y="1016" fill="#e8e3d8" font-size="13" text-anchor="middle" font-family="ui-monospace,monospace">18</text>
<rect x="144" y="994" width="58" height="34" rx="4" fill="#171b21" stroke="#8a7fb5" stroke-width="0.9"/>
<text x="173" y="1016" fill="#e8e3d8" font-size="13" text-anchor="middle" font-family="ui-monospace,monospace">45</text>
<rect x="208" y="994" width="58" height="34" rx="4" fill="#171b21" stroke="#8a7fb5" stroke-width="0.9"/>
<text x="237" y="1016" fill="#e8e3d8" font-size="13" text-anchor="middle" font-family="ui-monospace,monospace">72</text>
<rect x="272" y="994" width="58" height="34" rx="4" fill="#2a2118" stroke="#8a7fb5" stroke-width="2"/>
<text x="301" y="1016" fill="#e8e3d8" font-size="13" text-anchor="middle" font-family="ui-monospace,monospace">99</text>
<text x="348" y="1016" fill="#8a7fb5" font-size="12" font-family="ui-monospace,monospace">36+63 = 99</text>
<text x="30" y="1064" fill="#e8e3d8" font-size="13" font-family="ui-monospace,monospace">459</text>
<rect x="80" y="1042" width="58" height="34" rx="4" fill="#171b21" stroke="#8a7fb5" stroke-width="0.9"/>
<text x="109" y="1064" fill="#e8e3d8" font-size="13" text-anchor="middle" font-family="ui-monospace,monospace">18</text>
<rect x="144" y="1042" width="58" height="34" rx="4" fill="#171b21" stroke="#8a7fb5" stroke-width="0.9"/>
<text x="173" y="1064" fill="#e8e3d8" font-size="13" text-anchor="middle" font-family="ui-monospace,monospace">54</text>
<rect x="208" y="1042" width="58" height="34" rx="4" fill="#171b21" stroke="#8a7fb5" stroke-width="0.9"/>
<text x="237" y="1064" fill="#e8e3d8" font-size="13" text-anchor="middle" font-family="ui-monospace,monospace">63</text>
<rect x="272" y="1042" width="58" height="34" rx="4" fill="#2a2118" stroke="#8a7fb5" stroke-width="2"/>
<text x="301" y="1064" fill="#e8e3d8" font-size="13" text-anchor="middle" font-family="ui-monospace,monospace">99</text>
<text x="348" y="1064" fill="#8a7fb5" font-size="12" font-family="ui-monospace,monospace">45+54 = 99</text>
<text x="30" y="1106" fill="#525c6a" font-size="11" font-family="ui-monospace,monospace">16 of 84 three-digit sets round-trip. 123 is the only consecutive run among them.</text>
</svg>